<svg width="1024" height="1024" viewBox="0 0 1024 1024" fill="none" xmlns="http://www.w3.org/2000/svg">
<g filter="url(#filter0_d_1_39)">
<path fill-rule="evenodd" clip-rule="evenodd" d="M721.032 253.795C731.697 243.565 745.904 237.939 760.625 238.115C775.346 238.291 789.417 244.257 799.837 254.739C810.257 265.222 816.203 279.394 816.406 294.232C816.609 309.071 811.054 323.402 800.924 334.171L800.633 334.48L777.027 358.273C752.853 382.647 719.369 425.217 706.637 452.585C694.894 477.83 695.3 494.456 696.044 524.877C696.253 533.428 696.489 543.07 696.489 554.3C696.489 627.817 693.709 698.325 745.275 750.322L768.865 774.098L769.135 774.385C779.285 785.134 784.868 799.454 784.693 814.293C784.518 829.132 778.599 843.315 768.198 853.818C757.798 864.321 743.739 870.313 729.018 870.518C714.298 870.722 700.08 865.123 689.396 854.913L689.089 854.62L665.479 830.824C613.888 778.829 575.664 749.618 502.705 749.618C429.752 749.618 391.533 778.825 339.942 830.813L316.719 854.287C311.482 859.575 305.252 863.783 298.407 866.648C291.561 869.514 284.222 870.993 276.809 871C269.396 871.007 262.055 869.542 255.203 866.69C248.352 863.837 242.125 859.653 236.878 854.374C231.631 849.096 227.467 842.827 224.624 835.927C221.78 829.026 220.313 821.628 220.306 814.156C220.299 806.684 221.752 799.284 224.582 792.378C227.413 785.472 231.565 779.195 236.802 773.907L260.134 750.39C311.721 698.391 308.955 627.867 308.955 554.333C308.955 543.767 309.192 534.459 309.415 525.695C309.745 512.745 310.045 500.982 309.505 488.099C308.675 468.306 305.79 451.626 298.793 436.589C293.631 425.496 283.856 413.163 270.357 399.196C263.785 392.397 256.809 385.685 249.609 378.819C248.733 377.983 247.849 377.142 246.962 376.297C240.736 370.366 234.3 364.236 228.404 358.293L228.387 358.277L204.815 334.585L204.528 334.282C194.378 323.533 188.795 309.212 188.97 294.373C189.145 279.535 195.065 265.352 205.465 254.849C215.866 244.346 229.925 238.354 244.645 238.149C259.366 237.945 273.584 243.544 284.268 253.753L284.575 254.046L308.181 277.84C359.77 329.813 429.73 359.015 502.672 359.015C575.614 359.015 645.57 329.818 697.159 277.844L720.748 254.068L721.032 253.795Z" fill="#333333"/>
</g>
<ellipse cx="502.5" cy="209.667" rx="104.167" ry="106.667" fill="#333333"/>
<ellipse cx="804.723" cy="254" rx="45.5" ry="48" fill="#333333"/>
<ellipse cx="787.5" cy="873" rx="45.5" ry="48" fill="#333333"/>
<ellipse cx="234.055" cy="873" rx="45.5" ry="48" fill="#333333"/>
<ellipse cx="202.056" cy="254" rx="45.5" ry="48" fill="#333333"/>
<g filter="url(#filter1_i_1_39)">
<path d="M512.17 470.605C512.17 451.514 527.32 436.037 546.009 436.037H584.682C603.371 436.037 618.521 451.514 618.521 470.605V510.111C618.521 529.203 603.371 544.679 584.682 544.679H546.009C527.32 544.679 512.17 529.203 512.17 510.111V470.605Z" fill="#16A34A"/>
</g>
<g filter="url(#filter2_i_1_39)">
<path d="M386.482 470.605C386.482 451.514 401.632 436.037 420.321 436.037H458.994C477.683 436.037 492.833 451.514 492.833 470.605V510.111C492.833 529.203 477.683 544.679 458.994 544.679H420.321C401.632 544.679 386.482 529.203 386.482 510.111V470.605Z" fill="#DC2626"/>
</g>
<g filter="url(#filter3_i_1_39)">
<path d="M386.482 599C386.482 579.909 401.632 564.432 420.321 564.432H458.994C477.683 564.432 492.833 579.909 492.833 599V638.506C492.833 657.598 477.683 673.074 458.994 673.074H420.321C401.632 673.074 386.482 657.598 386.482 638.506V599Z" fill="#2563EB"/>
</g>
<g filter="url(#filter4_i_1_39)">
<path d="M512.29 598.568C512.29 579.477 527.441 564 546.13 564H584.803C603.492 564 618.642 579.477 618.642 598.568V638.074C618.642 657.165 603.492 672.642 584.803 672.642H546.13C527.441 672.642 512.29 657.165 512.29 638.074V598.568Z" fill="#F59E0B"/>
</g>
<defs>
<filter id="filter0_d_1_39" x="184.966" y="238.111" width="635.445" height="640.889" filterUnits="userSpaceOnUse" color-interpolation-filters="sRGB">
<feFlood flood-opacity="0" result="BackgroundImageFix"/>
<feColorMatrix in="SourceAlpha" type="matrix" values="0 0 0 0 0 0 0 0 0 0 0 0 0 0 0 0 0 0 127 0" result="hardAlpha"/>
<feOffset dy="4"/>
<feGaussianBlur stdDeviation="2"/>
<feComposite in2="hardAlpha" operator="out"/>
<feColorMatrix type="matrix" values="0 0 0 0 0 0 0 0 0 0 0 0 0 0 0 0 0 0 0.25 0"/>
<feBlend mode="normal" in2="BackgroundImageFix" result="effect1_dropShadow_1_39"/>
<feBlend mode="normal" in="SourceGraphic" in2="effect1_dropShadow_1_39" result="shape"/>
</filter>
<filter id="filter1_i_1_39" x="512.17" y="436.037" width="106.352" height="109.642" filterUnits="userSpaceOnUse" color-interpolation-filters="sRGB">
<feFlood flood-opacity="0" result="BackgroundImageFix"/>
<feBlend mode="normal" in="SourceGraphic" in2="BackgroundImageFix" result="shape"/>
<feColorMatrix in="SourceAlpha" type="matrix" values="0 0 0 0 0 0 0 0 0 0 0 0 0 0 0 0 0 0 127 0" result="hardAlpha"/>
<feOffset dy="2"/>
<feGaussianBlur stdDeviation="0.5"/>
<feComposite in2="hardAlpha" operator="arithmetic" k2="-1" k3="1"/>
<feColorMatrix type="matrix" values="0 0 0 0 0 0 0 0 0 0 0 0 0 0 0 0 0 0 0.25 0"/>
<feBlend mode="normal" in2="shape" result="effect1_innerShadow_1_39"/>
</filter>
<filter id="filter2_i_1_39" x="386.482" y="436.037" width="106.352" height="109.642" filterUnits="userSpaceOnUse" color-interpolation-filters="sRGB">
<feFlood flood-opacity="0" result="BackgroundImageFix"/>
<feBlend mode="normal" in="SourceGraphic" in2="BackgroundImageFix" result="shape"/>
<feColorMatrix in="SourceAlpha" type="matrix" values="0 0 0 0 0 0 0 0 0 0 0 0 0 0 0 0 0 0 127 0" result="hardAlpha"/>
<feOffset dy="2"/>
<feGaussianBlur stdDeviation="0.5"/>
<feComposite in2="hardAlpha" operator="arithmetic" k2="-1" k3="1"/>
<feColorMatrix type="matrix" values="0 0 0 0 0 0 0 0 0 0 0 0 0 0 0 0 0 0 0.25 0"/>
<feBlend mode="normal" in2="shape" result="effect1_innerShadow_1_39"/>
</filter>
<filter id="filter3_i_1_39" x="386.482" y="564.432" width="106.352" height="109.642" filterUnits="userSpaceOnUse" color-interpolation-filters="sRGB">
<feFlood flood-opacity="0" result="BackgroundImageFix"/>
<feBlend mode="normal" in="SourceGraphic" in2="BackgroundImageFix" result="shape"/>
<feColorMatrix in="SourceAlpha" type="matrix" values="0 0 0 0 0 0 0 0 0 0 0 0 0 0 0 0 0 0 127 0" result="hardAlpha"/>
<feOffset dy="2"/>
<feGaussianBlur stdDeviation="0.5"/>
<feComposite in2="hardAlpha" operator="arithmetic" k2="-1" k3="1"/>
<feColorMatrix type="matrix" values="0 0 0 0 0 0 0 0 0 0 0 0 0 0 0 0 0 0 0.25 0"/>
<feBlend mode="normal" in2="shape" result="effect1_innerShadow_1_39"/>
</filter>
<filter id="filter4_i_1_39" x="512.29" y="564" width="106.352" height="109.642" filterUnits="userSpaceOnUse" color-interpolation-filters="sRGB">
<feFlood flood-opacity="0" result="BackgroundImageFix"/>
<feBlend mode="normal" in="SourceGraphic" in2="BackgroundImageFix" result="shape"/>
<feColorMatrix in="SourceAlpha" type="matrix" values="0 0 0 0 0 0 0 0 0 0 0 0 0 0 0 0 0 0 127 0" result="hardAlpha"/>
<feOffset dy="2"/>
<feGaussianBlur stdDeviation="0.5"/>
<feComposite in2="hardAlpha" operator="arithmetic" k2="-1" k3="1"/>
<feColorMatrix type="matrix" values="0 0 0 0 0 0 0 0 0 0 0 0 0 0 0 0 0 0 0.25 0"/>
<feBlend mode="normal" in2="shape" result="effect1_innerShadow_1_39"/>
</filter>
</defs>
</svg>
