<svg width="129" height="129" viewBox="0 0 129 129" fill="none" xmlns="http://www.w3.org/2000/svg">
<path fill-rule="evenodd" clip-rule="evenodd" d="M60.8897 12.3571C61.5383 12.3571 62.0641 11.8295 62.0641 11.1786C62.0641 10.5277 61.5383 10 60.8897 10C60.2411 10 59.7153 10.5277 59.7153 11.1786C59.7153 11.8295 60.2411 12.3571 60.8897 12.3571ZM83.4401 22.0523C85.471 22.0523 87.1174 20.4058 87.1174 18.3749C87.1174 16.3439 85.471 14.6975 83.4401 14.6975C81.4091 14.6975 79.7627 16.3439 79.7627 18.3749C79.7627 20.4058 81.4091 22.0523 83.4401 22.0523ZM83.4401 23.6181C86.3358 23.6181 88.6833 21.2706 88.6833 18.3749C88.6833 15.4791 86.3358 13.1317 83.4401 13.1317C80.5443 13.1317 78.1969 15.4791 78.1969 18.3749C78.1969 21.2706 80.5443 23.6181 83.4401 23.6181ZM83.3986 21.3523C85.0201 21.3523 86.3345 20.0378 86.3345 18.4164C86.3345 16.7949 85.0201 15.4804 83.3986 15.4804C81.7771 15.4804 80.4626 16.7949 80.4626 18.4164C80.4626 20.0378 81.7771 21.3523 83.3986 21.3523ZM83.3986 21.7438C85.2363 21.7438 86.726 20.254 86.726 18.4164C86.726 16.5787 85.2363 15.089 83.3986 15.089C81.5609 15.089 80.0712 16.5787 80.0712 18.4164C80.0712 20.254 81.5609 21.7438 83.3986 21.7438ZM22.1352 55.022C22.1352 55.6729 21.6094 56.2005 20.9608 56.2005C20.3123 56.2005 19.7865 55.6729 19.7865 55.022C19.7865 54.3711 20.3123 53.8434 20.9608 53.8434C21.6094 53.8434 22.1352 54.3711 22.1352 55.022ZM90.2491 73.8078C90.2491 75.105 89.1975 76.1566 87.9003 76.1566C86.6032 76.1566 85.5516 75.105 85.5516 73.8078C85.5516 72.5106 86.6032 71.4591 87.9003 71.4591C89.1975 71.4591 90.2491 72.5106 90.2491 73.8078ZM91.8149 73.8078C91.8149 75.9698 90.0623 77.7224 87.9003 77.7224C85.7384 77.7224 83.9858 75.9698 83.9858 73.8078C83.9858 71.6459 85.7384 69.8932 87.9003 69.8932C90.0623 69.8932 91.8149 71.6459 91.8149 73.8078ZM71.6548 97.7189C74.1411 97.7189 76.1566 95.6962 76.1566 93.2011C76.1566 90.7059 74.1411 88.6833 71.6548 88.6833C69.1685 88.6833 67.153 90.7059 67.153 93.2011C67.153 95.6962 69.1685 97.7189 71.6548 97.7189ZM79.2882 103.184C80.5854 103.184 81.637 102.129 81.637 100.827C81.637 99.525 80.5854 98.4697 79.2882 98.4697C77.9911 98.4697 76.9395 99.525 76.9395 100.827C76.9395 102.129 77.9911 103.184 79.2882 103.184ZM43.6655 109.039C43.6655 110.985 42.0881 112.562 40.1423 112.562C38.1966 112.562 36.6192 110.985 36.6192 109.039C36.6192 107.093 38.1966 105.516 40.1423 105.516C42.0881 105.516 43.6655 107.093 43.6655 109.039ZM12.9359 76.555C13.4764 76.555 13.9146 76.1153 13.9146 75.5729C13.9146 75.0305 13.4764 74.5907 12.9359 74.5907C12.3955 74.5907 11.9573 75.0305 11.9573 75.5729C11.9573 76.1153 12.3955 76.555 12.9359 76.555ZM27.6157 102.189C27.6157 102.729 27.1775 103.167 26.637 103.167C26.0965 103.167 25.6584 102.729 25.6584 102.189C25.6584 101.648 26.0965 101.21 26.637 101.21C27.1775 101.21 27.6157 101.648 27.6157 102.189ZM116.085 82.4283C116.734 82.4283 117.26 81.9006 117.26 81.2497C117.26 80.5988 116.734 80.0712 116.085 80.0712C115.437 80.0712 114.911 80.5988 114.911 81.2497C114.911 81.9006 115.437 82.4283 116.085 82.4283ZM120 64.0255C120 64.6764 119.474 65.2041 118.826 65.2041C118.177 65.2041 117.651 64.6764 117.651 64.0255C117.651 63.3746 118.177 62.847 118.826 62.847C119.474 62.847 120 63.3746 120 64.0255ZM102.776 102.773C102.776 105.367 100.673 107.471 98.0783 107.471C95.4839 107.471 93.3808 105.367 93.3808 102.773C93.3808 100.179 95.4839 98.0755 98.0783 98.0755C100.673 98.0755 102.776 100.179 102.776 102.773ZM96.5124 22.9265C97.161 22.9265 97.6868 22.3989 97.6868 21.748C97.6868 21.0971 97.161 20.5694 96.5124 20.5694C95.8639 20.5694 95.3381 21.0971 95.3381 21.748C95.3381 22.3989 95.8639 22.9265 96.5124 22.9265ZM20.5694 36.6234C20.5694 37.2743 20.0436 37.802 19.395 37.802C18.7464 37.802 18.2206 37.2743 18.2206 36.6234C18.2206 35.9725 18.7464 35.4448 19.395 35.4448C20.0436 35.4448 20.5694 35.9725 20.5694 36.6234ZM24.8754 30.3642C25.524 30.3642 26.0498 29.8366 26.0498 29.1857C26.0498 28.5348 25.524 28.0071 24.8754 28.0071C24.2269 28.0071 23.7011 28.5348 23.7011 29.1857C23.7011 29.8366 24.2269 30.3642 24.8754 30.3642ZM37.7936 19.0077C37.7936 19.6586 37.2678 20.1863 36.6192 20.1863C35.9706 20.1863 35.4448 19.6586 35.4448 19.0077C35.4448 18.3568 35.9706 17.8292 36.6192 17.8292C37.2678 17.8292 37.7936 18.3568 37.7936 19.0077ZM117.26 47.5842C117.26 48.2351 116.734 48.7628 116.085 48.7628C115.437 48.7628 114.911 48.2351 114.911 47.5842C114.911 46.9333 115.437 46.4057 116.085 46.4057C116.734 46.4057 117.26 46.9333 117.26 47.5842ZM105.712 100.427C106.901 100.427 107.865 99.4631 107.865 98.274C107.865 97.0849 106.901 96.121 105.712 96.121C104.523 96.121 103.559 97.0849 103.559 98.274C103.559 99.4631 104.523 100.427 105.712 100.427ZM80.4626 24.0925C80.4626 24.9573 79.7616 25.6584 78.8968 25.6584C78.032 25.6584 77.3309 24.9573 77.3309 24.0925C77.3309 23.2277 78.032 22.5267 78.8968 22.5267C79.7616 22.5267 80.4626 23.2277 80.4626 24.0925ZM46.0142 48.7544C46.879 48.7544 47.5801 48.0534 47.5801 47.1886C47.5801 46.3238 46.879 45.6228 46.0142 45.6228C45.1494 45.6228 44.4484 46.3238 44.4484 47.1886C44.4484 48.0534 45.1494 48.7544 46.0142 48.7544ZM60.4982 53.0647C60.4982 53.7156 59.9724 54.2432 59.3238 54.2432C58.6752 54.2432 58.1495 53.7156 58.1495 53.0647C58.1495 52.4138 58.6752 51.8861 59.3238 51.8861C59.9724 51.8861 60.4982 52.4138 60.4982 53.0647ZM67.9359 37.4105C68.5845 37.4105 69.1103 36.8828 69.1103 36.2319C69.1103 35.581 68.5845 35.0534 67.9359 35.0534C67.2873 35.0534 66.7616 35.581 66.7616 36.2319C66.7616 36.8828 67.2873 37.4105 67.9359 37.4105ZM36.6192 106.894C36.6192 108.304 35.48 109.447 34.0747 109.447C32.6695 109.447 31.5303 108.304 31.5303 106.894C31.5303 105.483 32.6695 104.34 34.0747 104.34C35.48 104.34 36.6192 105.483 36.6192 106.894ZM77.7224 15.1029C78.8034 15.1029 79.6797 14.2235 79.6797 13.1386C79.6797 12.0538 78.8034 11.1744 77.7224 11.1744C76.6414 11.1744 75.7651 12.0538 75.7651 13.1386C75.7651 14.2235 76.6414 15.1029 77.7224 15.1029ZM15.8719 66.1848C15.8719 67.8121 14.5574 69.1312 12.9359 69.1312C11.3145 69.1312 10 67.8121 10 66.1848C10 64.5576 11.3145 63.2384 12.9359 63.2384C14.5574 63.2384 15.8719 64.5576 15.8719 66.1848ZM14.5018 51.9014C15.6909 51.9014 16.6548 50.9341 16.6548 49.7408C16.6548 48.5474 15.6909 47.5801 14.5018 47.5801C13.3127 47.5801 12.3488 48.5474 12.3488 49.7408C12.3488 50.9341 13.3127 51.9014 14.5018 51.9014ZM47.9715 36.2278C47.9715 37.3087 47.0952 38.1851 46.0142 38.1851C44.9332 38.1851 44.0569 37.3087 44.0569 36.2278C44.0569 35.1468 44.9332 34.2705 46.0142 34.2705C47.0952 34.2705 47.9715 35.1468 47.9715 36.2278ZM67.7402 61.6907C69.1455 61.6907 70.2847 60.5475 70.2847 59.1372C70.2847 57.7269 69.1455 56.5836 67.7402 56.5836C66.3349 56.5836 65.1957 57.7269 65.1957 59.1372C65.1957 60.5475 66.3349 61.6907 67.7402 61.6907ZM71.6793 31.9584C71.6793 33.0056 70.8303 33.8545 69.7831 33.8545C68.7359 33.8545 67.887 33.0056 67.887 31.9584C67.887 30.9112 68.7359 30.0623 69.7831 30.0623C70.8303 30.0623 71.6793 30.9112 71.6793 31.9584ZM57.758 31.1611C59.4876 31.1611 60.8897 29.754 60.8897 28.0183C60.8897 26.2825 59.4876 24.8754 57.758 24.8754C56.0284 24.8754 54.6263 26.2825 54.6263 28.0183C54.6263 29.754 56.0284 31.1611 57.758 31.1611ZM120 59.1281C120 61.3982 118.16 63.2384 115.89 63.2384C113.62 63.2384 111.779 61.3982 111.779 59.1281C111.779 56.858 113.62 55.0178 115.89 55.0178C118.16 55.0178 120 56.858 120 59.1281ZM76.9395 84.3772C76.9395 86.323 75.3621 87.9003 73.4164 87.9003C71.4706 87.9003 69.8932 86.323 69.8932 84.3772C69.8932 82.4314 71.4706 80.8541 73.4164 80.8541C75.3621 80.8541 76.9395 82.4314 76.9395 84.3772ZM64.2171 56.6073C66.0548 56.6073 67.5445 55.1123 67.5445 53.2681C67.5445 51.4239 66.0548 49.9288 64.2171 49.9288C62.3794 49.9288 60.8897 51.4239 60.8897 53.2681C60.8897 55.1123 62.3794 56.6073 64.2171 56.6073ZM42.0996 18.6191C42.0996 19.7039 41.2233 20.5833 40.1423 20.5833C39.0614 20.5833 38.185 19.7039 38.185 18.6191C38.185 17.5342 39.0614 16.6548 40.1423 16.6548C41.2233 16.6548 42.0996 17.5342 42.0996 18.6191ZM12.3487 73.4164C13.2135 73.4164 13.9146 72.7153 13.9146 71.8505C13.9146 70.9858 13.2135 70.2847 12.3487 70.2847C11.484 70.2847 10.7829 70.9858 10.7829 71.8505C10.7829 72.7153 11.484 73.4164 12.3487 73.4164ZM60.1068 12.945C60.1068 14.3553 58.9676 15.4985 57.5623 15.4985C56.157 15.4985 55.0178 14.3553 55.0178 12.945C55.0178 11.5347 56.157 10.3915 57.5623 10.3915C58.9676 10.3915 60.1068 11.5347 60.1068 12.945ZM36.4235 49.5638C38.4774 49.5638 40.1423 47.8929 40.1423 45.8317C40.1423 43.7706 38.4774 42.0996 36.4235 42.0996C34.3696 42.0996 32.7046 43.7706 32.7046 45.8317C32.7046 47.8929 34.3696 49.5638 36.4235 49.5638ZM118.434 52.4865C118.434 53.6799 117.47 54.6472 116.281 54.6472C115.092 54.6472 114.128 53.6799 114.128 52.4865C114.128 51.2932 115.092 50.3258 116.281 50.3258C117.47 50.3258 118.434 51.2932 118.434 52.4865ZM29.573 105.907C30.4377 105.907 31.1388 105.206 31.1388 104.342C31.1388 103.477 30.4377 102.776 29.573 102.776C28.7082 102.776 28.0071 103.477 28.0071 104.342C28.0071 105.206 28.7082 105.907 29.573 105.907ZM82.0285 114.911C82.0285 116.208 80.9769 117.26 79.6797 117.26C78.3825 117.26 77.3309 116.208 77.3309 114.911C77.3309 113.614 78.3825 112.562 79.6797 112.562C80.9769 112.562 82.0285 113.614 82.0285 114.911ZM56.7821 118.847C57.9727 118.847 58.9379 117.878 58.9379 116.683C58.9379 115.488 57.9727 114.52 56.7821 114.52C55.5915 114.52 54.6263 115.488 54.6263 116.683C54.6263 117.878 55.5915 118.847 56.7821 118.847ZM19.395 56.9904C19.395 59.377 17.4671 61.3118 15.089 61.3118C12.7108 61.3118 10.7829 59.377 10.7829 56.9904C10.7829 54.6038 12.7108 52.669 15.089 52.669C17.4671 52.669 19.395 54.6038 19.395 56.9904ZM43.0783 45.6492C45.1322 45.6492 46.7972 43.9783 46.7972 41.9171C46.7972 39.856 45.1322 38.1851 43.0783 38.1851C41.0244 38.1851 39.3594 39.856 39.3594 41.9171C39.3594 43.9783 41.0244 45.6492 43.0783 45.6492ZM71.6548 68.3483C73.2763 68.3483 74.5907 67.0292 74.5907 65.4019C74.5907 63.7747 73.2763 62.4555 71.6548 62.4555C70.0333 62.4555 68.7189 63.7747 68.7189 65.4019C68.7189 67.0292 70.0333 68.3483 71.6548 68.3483ZM94.1637 20.1779C94.1637 21.4751 93.1121 22.5267 91.8149 22.5267C90.5178 22.5267 89.4662 21.4751 89.4662 20.1779C89.4662 18.8808 90.5178 17.8292 91.8149 17.8292C93.1121 17.8292 94.1637 18.8808 94.1637 20.1779ZM50.7117 30.9431C50.7117 32.1321 49.7478 33.0961 48.5587 33.0961C47.3696 33.0961 46.4057 32.1321 46.4057 30.9431C46.4057 29.754 47.3696 28.79 48.5587 28.79C49.7478 28.79 50.7117 29.754 50.7117 30.9431ZM51.8861 30.9431C51.8861 32.7807 50.3964 34.2705 48.5587 34.2705C46.721 34.2705 45.2313 32.7807 45.2313 30.9431C45.2313 29.1054 46.721 27.6157 48.5587 27.6157C50.3964 27.6157 51.8861 29.1054 51.8861 30.9431ZM26.8327 33.6937C26.8327 35.321 25.5183 36.6401 23.8968 36.6401C22.2753 36.6401 20.9609 35.321 20.9609 33.6937C20.9609 32.0665 22.2753 30.7473 23.8968 30.7473C25.5183 30.7473 26.8327 32.0665 26.8327 33.6937ZM103.559 95.5338C103.559 97.1553 102.244 98.4697 100.623 98.4697C99.0013 98.4697 97.6868 97.1553 97.6868 95.5338C97.6868 95.1718 97.7523 94.8251 97.8721 94.505C95.9467 98.0333 92.203 100.427 87.9004 100.427C81.6306 100.427 76.548 95.3444 76.548 89.0747C76.548 82.805 81.6306 77.7224 87.9004 77.7224C94.1701 77.7224 99.2527 82.805 99.2527 89.0747C99.2527 90.8081 98.8642 92.4507 98.1696 93.9203C98.6946 93.1236 99.5973 92.5978 100.623 92.5978C102.244 92.5978 103.559 93.9123 103.559 95.5338ZM67.153 31.5302C67.153 32.6112 66.2767 33.4875 65.1957 33.4875C64.1147 33.4875 63.2384 32.6112 63.2384 31.5302C63.2384 30.4493 64.1147 29.5729 65.1957 29.5729C66.2767 29.5729 67.153 30.4493 67.153 31.5302ZM77.5267 79.2882C80.2291 79.2882 82.4199 77.0975 82.4199 74.395C82.4199 71.6925 80.2291 69.5018 77.5267 69.5018C74.8242 69.5018 72.6334 71.6925 72.6334 74.395C72.6334 77.0975 74.8242 79.2882 77.5267 79.2882ZM77.5267 80.8541C81.0939 80.8541 83.9857 77.9622 83.9857 74.395C83.9857 70.8278 81.0939 67.9359 77.5267 67.9359C73.9594 67.9359 71.0676 70.8278 71.0676 74.395C71.0676 77.9622 73.9594 80.8541 77.5267 80.8541ZM77.7224 78.7011C79.9924 78.7011 81.8327 76.8609 81.8327 74.5908C81.8327 72.3207 79.9924 70.4805 77.7224 70.4805C75.4523 70.4805 73.6121 72.3207 73.6121 74.5908C73.6121 76.8609 75.4523 78.7011 77.7224 78.7011ZM77.7224 79.0926C80.2086 79.0926 82.2242 77.0771 82.2242 74.5908C82.2242 72.1045 80.2086 70.089 77.7224 70.089C75.2361 70.089 73.2206 72.1045 73.2206 74.5908C73.2206 77.0771 75.2361 79.0926 77.7224 79.0926ZM97.9804 78.1383C99.7152 78.1383 101.161 76.7089 101.161 74.8966C101.161 73.0843 99.7152 71.6548 97.9804 71.6548C96.2456 71.6548 94.7998 73.0843 94.7998 74.8966C94.7998 76.7089 96.2456 78.1383 97.9804 78.1383ZM97.9804 80.0956C100.818 80.0956 103.118 77.7679 103.118 74.8966C103.118 72.0252 100.818 69.6975 97.9804 69.6975C95.1428 69.6975 92.8425 72.0252 92.8425 74.8966C92.8425 77.7679 95.1428 80.0956 97.9804 80.0956ZM54.6263 110.801C54.6263 113.287 52.6108 115.302 50.1246 115.302C47.6383 115.302 45.6228 113.287 45.6228 110.801C45.6228 108.314 47.6383 106.299 50.1246 106.299C52.6108 106.299 54.6263 108.314 54.6263 110.801ZM56.1922 110.801C56.1922 114.152 53.4756 116.868 50.1246 116.868C46.7735 116.868 44.0569 114.152 44.0569 110.801C44.0569 107.45 46.7735 104.733 50.1246 104.733C53.4756 104.733 56.1922 107.45 56.1922 110.801ZM50.1245 25.6584C53.2594 25.6584 55.8007 23.1171 55.8007 19.9822C55.8007 16.8474 53.2594 14.3061 50.1245 14.3061C46.9897 14.3061 44.4484 16.8474 44.4484 19.9822C44.4484 23.1171 46.9897 25.6584 50.1245 25.6584ZM50.1245 27.6157C54.3404 27.6157 57.758 24.198 57.758 19.9822C57.758 15.7664 54.3404 12.3488 50.1245 12.3488C45.9087 12.3488 42.4911 15.7664 42.4911 19.9822C42.4911 24.198 45.9087 27.6157 50.1245 27.6157ZM50.3559 23.968C52.4294 23.968 54.1103 22.2871 54.1103 20.2135C54.1103 18.14 52.4294 16.4591 50.3559 16.4591C50.0166 16.4591 49.6878 16.5041 49.3752 16.5884C49.6172 16.5387 49.8678 16.5126 50.1245 16.5126C52.1685 16.5126 53.8256 18.1696 53.8256 20.2136C53.8256 22.2577 52.1685 23.9147 50.1245 23.9147C49.8688 23.9147 49.6191 23.8888 49.378 23.8394C49.6898 23.9233 50.0176 23.968 50.3559 23.968ZM50.3559 25.5338C53.2942 25.5338 55.6761 23.1518 55.6761 20.2135C55.6761 17.2752 53.2942 14.8933 50.3559 14.8933C47.4175 14.8933 45.0356 17.2752 45.0356 20.2135C45.0356 23.1518 47.4175 25.5338 50.3559 25.5338ZM50.1246 19.9823C50.8912 19.9823 51.5125 19.3609 51.5125 18.5944C51.5125 17.8279 50.8912 17.2065 50.1246 17.2065C49.3581 17.2065 48.7367 17.8279 48.7367 18.5944C48.7367 19.3609 49.3581 19.9823 50.1246 19.9823ZM49.1992 20.5605C49.1992 20.8799 48.9403 21.1388 48.6209 21.1388C48.3015 21.1388 48.0426 20.8799 48.0426 20.5605C48.0426 20.2411 48.3015 19.9822 48.6209 19.9822C48.9403 19.9822 49.1992 20.2411 49.1992 20.5605ZM24.484 51.617C28.0107 51.617 30.8697 48.758 30.8697 45.2313C30.8697 41.7046 28.0107 38.8456 24.484 38.8456C20.9573 38.8456 18.0983 41.7046 18.0983 45.2313C18.0983 48.758 20.9573 51.617 24.484 51.617ZM24.484 53.452C29.0241 53.452 32.7046 49.7715 32.7046 45.2313C32.7046 40.6912 29.0241 37.0107 24.484 37.0107C19.9439 37.0107 16.2633 40.6912 16.2633 45.2313C16.2633 49.7715 19.9439 53.452 24.484 53.452ZM24.8265 50.2469C27.5965 50.2469 29.8421 48.0013 29.8421 45.2313C29.8421 42.4613 27.5965 40.2157 24.8265 40.2157C22.0565 40.2157 19.8109 42.4613 19.8109 45.2313C19.8109 48.0013 22.0565 50.2469 24.8265 50.2469ZM24.1102 45.5427C24.967 45.5427 25.6615 44.8481 25.6615 43.9914C25.6615 43.1346 24.967 42.4401 24.1102 42.4401C23.2535 42.4401 22.559 43.1346 22.559 43.9914C22.559 44.8481 23.2535 45.5427 24.1102 45.5427ZM105.973 71.5184C105.973 74.3218 107.939 76.6659 110.568 77.2464C107.701 76.7632 105.516 74.2684 105.516 71.2633C105.516 67.9123 108.233 65.1957 111.584 65.1957C114.589 65.1957 117.083 67.3801 117.567 70.2476C116.986 67.6188 114.642 65.6524 111.839 65.6524C108.599 65.6524 105.973 68.2787 105.973 71.5184ZM111.584 79.6797C116.232 79.6797 120 75.9116 120 71.2633C120 66.6151 116.232 62.847 111.584 62.847C106.935 62.847 103.167 66.6151 103.167 71.2633C103.167 75.9116 106.935 79.6797 111.584 79.6797ZM111.839 76.2099C114.43 76.2099 116.53 74.1094 116.53 71.5184C116.53 68.9273 114.43 66.8268 111.839 66.8268C109.248 66.8268 107.147 68.9273 107.147 71.5184C107.147 74.1094 109.248 76.2099 111.839 76.2099ZM111.584 75.599C113.837 75.599 115.664 73.772 115.664 71.5183C115.664 69.2647 113.837 67.4377 111.584 67.4377C109.33 67.4377 107.503 69.2647 107.503 71.5183C107.503 73.772 109.33 75.599 111.584 75.599ZM113.114 73.2457C113.959 73.2457 114.644 72.5606 114.644 71.7154C114.644 70.8703 113.959 70.1852 113.114 70.1852C112.269 70.1852 111.584 70.8703 111.584 71.7154C111.584 72.5606 112.269 73.2457 113.114 73.2457ZM111.807 73.2689C111.807 73.621 111.521 73.9065 111.169 73.9065C110.817 73.9065 110.532 73.621 110.532 73.2689C110.532 72.9167 110.817 72.6313 111.169 72.6313C111.521 72.6313 111.807 72.9167 111.807 73.2689ZM75.7651 19.7865C75.7651 24.1104 72.2599 27.6157 67.9359 27.6157C63.612 27.6157 60.1068 24.1104 60.1068 19.7865C60.1068 15.4625 63.612 11.9573 67.9359 11.9573C72.2599 11.9573 75.7651 15.4625 75.7651 19.7865ZM77.7224 19.7865C77.7224 25.1914 73.3409 29.573 67.9359 29.573C62.531 29.573 58.1495 25.1914 58.1495 19.7865C58.1495 14.3816 62.531 10 67.9359 10C73.3409 10 77.7224 14.3816 77.7224 19.7865ZM73.2396 20.26C73.2396 23.102 70.9357 25.4058 68.0938 25.4058C65.2518 25.4058 62.948 23.102 62.948 20.26C62.948 17.4181 65.2518 15.1142 68.0938 15.1142C70.9357 15.1142 73.2396 17.4181 73.2396 20.26ZM75.1969 20.26C75.1969 24.183 72.0167 27.3631 68.0938 27.3631C64.1709 27.3631 60.9907 24.183 60.9907 20.26C60.9907 16.3371 64.1709 13.157 68.0938 13.157C72.0167 13.157 75.1969 16.3371 75.1969 20.26ZM68.0938 24.5219C70.2732 24.5219 72.0399 22.7551 72.0399 20.5757C72.0399 18.3963 70.2732 16.6296 68.0938 16.6296C65.9144 16.6296 64.1476 18.3963 64.1476 20.5757C64.1476 22.7551 65.9144 24.5219 68.0938 24.5219ZM66.4834 19.8413C67.1285 19.8413 67.6514 19.3184 67.6514 18.6734C67.6514 18.0284 67.1285 17.5055 66.4834 17.5055C65.8384 17.5055 65.3155 18.0284 65.3155 18.6734C65.3155 19.3184 65.8384 19.8413 66.4834 19.8413ZM66.8407 20.4579C66.8407 20.7985 66.5647 21.0745 66.2241 21.0745C65.8836 21.0745 65.6075 20.7985 65.6075 20.4579C65.6075 20.1174 65.8836 19.8413 66.2241 19.8413C66.5647 19.8413 66.8407 20.1174 66.8407 20.4579ZM68.3813 18.6734C68.7845 18.6734 69.1113 18.3466 69.1113 17.9435C69.1113 17.5403 68.7845 17.2135 68.3813 17.2135C67.9782 17.2135 67.6514 17.5403 67.6514 17.9435C67.6514 18.3466 67.9782 18.6734 68.3813 18.6734ZM35.6406 37.0107C39.6402 37.0107 42.8826 33.7683 42.8826 29.7687C42.8826 25.769 39.6402 22.5267 35.6406 22.5267C31.6409 22.5267 28.3986 25.769 28.3986 29.7687C28.3986 33.7683 31.6409 37.0107 35.6406 37.0107ZM35.6406 38.968C40.7212 38.968 44.8399 34.8493 44.8399 29.7687C44.8399 24.6881 40.7212 20.5694 35.6406 20.5694C30.5599 20.5694 26.4413 24.6881 26.4413 29.7687C26.4413 34.8493 30.5599 38.968 35.6406 38.968ZM35.9193 34.8933C38.5955 34.8933 40.7651 32.7238 40.7651 30.0475C40.7651 27.3713 38.5955 25.2017 35.9193 25.2017C33.243 25.2017 31.0735 27.3713 31.0735 30.0475C31.0735 32.7238 33.243 34.8933 35.9193 34.8933ZM35.9193 36.4591C39.4603 36.4591 42.3309 33.5886 42.3309 30.0475C42.3309 26.5065 39.4603 23.6359 35.9193 23.6359C32.3782 23.6359 29.5077 26.5065 29.5077 30.0475C29.5077 33.5886 32.3782 36.4591 35.9193 36.4591ZM35.6405 34.5077C38.1039 34.5077 40.1008 32.5108 40.1008 30.0475C40.1008 27.5842 38.1039 25.5872 35.6405 25.5872C33.1772 25.5872 31.1803 27.5842 31.1803 30.0475C31.1803 32.5108 33.1772 34.5077 35.6405 34.5077ZM35.6407 29.7687C36.5644 29.7687 37.3133 29.0198 37.3133 28.0961C37.3133 27.1723 36.5644 26.4235 35.6407 26.4235C34.7169 26.4235 33.9681 27.1723 33.9681 28.0961C33.9681 29.0198 34.7169 29.7687 35.6407 29.7687ZM34.5254 30.4656C34.5254 30.8505 34.2134 31.1625 33.8285 31.1625C33.4436 31.1625 33.1316 30.8505 33.1316 30.4656C33.1316 30.0807 33.4436 29.7687 33.8285 29.7687C34.2134 29.7687 34.5254 30.0807 34.5254 30.4656ZM86.5302 114.911C90.5299 114.911 93.7722 111.669 93.7722 107.669C93.7722 103.669 90.5299 100.427 86.5302 100.427C82.5306 100.427 79.2882 103.669 79.2882 107.669C79.2882 111.669 82.5306 114.911 86.5302 114.911ZM113.345 87.1174C113.345 90.3604 110.716 92.9893 107.473 92.9893C104.23 92.9893 101.601 90.3604 101.601 87.1174C101.601 83.8745 104.23 81.2455 107.473 81.2455C110.716 81.2455 113.345 83.8745 113.345 87.1174ZM115.302 87.1174C115.302 91.4414 111.797 94.9466 107.473 94.9466C103.149 94.9466 99.6441 91.4414 99.6441 87.1174C99.6441 82.7935 103.149 79.2882 107.473 79.2882C111.797 79.2882 115.302 82.7935 115.302 87.1174ZM107.473 92.4555C110.225 92.4555 112.456 90.2249 112.456 87.4733C112.456 84.7217 110.225 82.4911 107.473 82.4911C104.722 82.4911 102.491 84.7217 102.491 87.4733C102.491 90.2249 104.722 92.4555 107.473 92.4555ZM76.548 108.452C76.548 113.316 72.6046 117.26 67.7402 117.26C62.8758 117.26 58.9324 113.316 58.9324 108.452C58.9324 103.588 62.8758 99.6441 67.7402 99.6441C72.6046 99.6441 76.548 103.588 76.548 108.452ZM78.8968 108.452C78.8968 114.614 73.9018 119.609 67.7402 119.609C61.5786 119.609 56.5836 114.614 56.5836 108.452C56.5836 102.29 61.5786 97.2954 67.7402 97.2954C73.9018 97.2954 78.8968 102.29 78.8968 108.452ZM74.0925 108.594C74.0925 112.024 71.3122 114.804 67.8825 114.804C64.4529 114.804 61.6726 112.024 61.6726 108.594C61.6726 105.165 64.4529 102.384 67.8825 102.384C71.3122 102.384 74.0925 105.165 74.0925 108.594ZM75.6583 108.594C75.6583 112.889 72.177 116.37 67.8825 116.37C63.5881 116.37 60.1067 112.889 60.1067 108.594C60.1067 104.3 63.5881 100.818 67.8825 100.818C72.177 100.818 75.6583 104.3 75.6583 108.594ZM73.1494 108.79C73.1494 111.777 70.7276 114.199 67.7402 114.199C64.7527 114.199 62.3309 111.777 62.3309 108.79C62.3309 105.803 64.7527 103.381 67.7402 103.381C70.7276 103.381 73.1494 105.803 73.1494 108.79ZM87.9004 97.2954C92.4405 97.2954 96.121 93.6149 96.121 89.0747C96.121 84.5346 92.4405 80.8541 87.9004 80.8541C83.3602 80.8541 79.6797 84.5346 79.6797 89.0747C79.6797 93.6149 83.3602 97.2954 87.9004 97.2954ZM87.9003 96.0965C91.7784 96.0965 94.9221 92.9528 94.9221 89.0747C94.9221 85.1967 91.7784 82.0529 87.9003 82.0529C84.0223 82.0529 80.8785 85.1967 80.8785 89.0747C80.8785 92.9528 84.0223 96.0965 87.9003 96.0965ZM87.9003 96.8794C92.2108 96.8794 95.7051 93.3851 95.7051 89.0747C95.7051 84.7643 92.2108 81.27 87.9003 81.27C83.5899 81.27 80.0956 84.7643 80.0956 89.0747C80.0956 93.3851 83.5899 96.8794 87.9003 96.8794ZM88.0777 94.3961C90.9187 94.3961 93.2217 92.0931 93.2217 89.2521C93.2217 86.4111 90.9187 84.1081 88.0777 84.1081C85.2368 84.1081 82.9337 86.4111 82.9337 89.2521C82.9337 92.0931 85.2368 94.3961 88.0777 94.3961ZM65.6117 41.3412C65.6117 45.8813 61.9311 49.5618 57.391 49.5618C52.8509 49.5618 49.1704 45.8813 49.1704 41.3412C49.1704 36.8011 52.8509 33.1205 57.391 33.1205C61.9311 33.1205 65.6117 36.8011 65.6117 41.3412ZM67.5689 41.3412C67.5689 46.9623 63.0121 51.5191 57.391 51.5191C51.7699 51.5191 47.2131 46.9623 47.2131 41.3412C47.2131 35.7201 51.7699 31.1633 57.391 31.1633C63.0121 31.1633 67.5689 35.7201 67.5689 41.3412ZM63.4831 41.3657C63.4831 44.7167 60.7665 47.4333 57.4155 47.4333C54.0644 47.4333 51.3479 44.7167 51.3479 41.3657C51.3479 38.0146 54.0644 35.298 57.4155 35.298C60.7665 35.298 63.4831 38.0146 63.4831 41.3657ZM65.0489 41.3657C65.0489 45.5815 61.6313 48.9991 57.4155 48.9991C53.1996 48.9991 49.782 45.5815 49.782 41.3657C49.782 37.1498 53.1996 33.7322 57.4155 33.7322C61.6313 33.7322 65.0489 37.1498 65.0489 41.3657ZM61.8928 41.3167C61.8928 43.8165 59.8663 45.843 57.3666 45.843C54.8668 45.843 52.8403 43.8165 52.8403 41.3167C52.8403 38.8169 54.8668 36.7905 57.3666 36.7905C59.8663 36.7905 61.8928 38.8169 61.8928 41.3167ZM107.473 46.4057C107.473 55.486 100.112 62.847 91.032 62.847C81.9517 62.847 74.5907 55.486 74.5907 46.4057C74.5907 37.3254 81.9517 29.9644 91.032 29.9644C100.112 29.9644 107.473 37.3254 107.473 46.4057ZM114.52 46.4057C114.52 59.3775 104.004 69.8932 91.032 69.8932C78.0602 69.8932 67.5445 59.3775 67.5445 46.4057C67.5445 33.4339 78.0602 22.9181 91.032 22.9181C104.004 22.9181 114.52 33.4339 114.52 46.4057ZM91.0545 58.5366C97.3439 58.5366 102.442 53.4199 102.442 47.1081C102.442 40.7964 97.3439 35.6797 91.0545 35.6797C84.7652 35.6797 79.6666 40.7964 79.6666 47.1081C79.6666 53.4199 84.7652 58.5366 91.0545 58.5366ZM62.4555 77.1352C62.4555 88.2694 53.4295 97.2954 42.2954 97.2954C31.1612 97.2954 22.1352 88.2694 22.1352 77.1352C22.1352 66.0011 31.1612 56.9751 42.2954 56.9751C53.4295 56.9751 62.4555 66.0011 62.4555 77.1352ZM70.2847 77.1352C70.2847 92.5933 57.7535 105.125 42.2954 105.125C26.8373 105.125 14.3061 92.5933 14.3061 77.1352C14.3061 61.6772 26.8373 49.1459 42.2954 49.1459C57.7535 49.1459 70.2847 61.6772 70.2847 77.1352ZM58.5409 77.1352C58.5409 86.1074 51.2676 93.3808 42.2954 93.3808C33.3232 93.3808 26.0498 86.1074 26.0498 77.1352C26.0498 68.1631 33.3232 60.8897 42.2954 60.8897C51.2676 60.8897 58.5409 68.1631 58.5409 77.1352ZM60.8897 77.1352C60.8897 87.4046 52.5647 95.7295 42.2954 95.7295C32.026 95.7295 23.7011 87.4046 23.7011 77.1352C23.7011 66.8659 32.026 58.5409 42.2954 58.5409C52.5647 58.5409 60.8897 66.8659 60.8897 77.1352ZM53.8434 77.3309C53.8434 83.8169 48.5856 89.0747 42.0997 89.0747C35.6138 89.0747 30.3559 83.8169 30.3559 77.3309C30.3559 70.845 35.6138 65.5872 42.0997 65.5872C48.5856 65.5872 53.8434 70.845 53.8434 77.3309Z" fill="#1F2328"/>
</svg>
