<svg width="1024" height="1024" viewBox="0 0 1024 1024" fill="none" xmlns="http://www.w3.org/2000/svg">
<path fill-rule="evenodd" clip-rule="evenodd" d="M476.502 61.2252C482.103 61.2252 486.644 56.6682 486.644 51.0468C486.644 45.4254 482.103 40.8684 476.502 40.8684C470.9 40.8684 466.359 45.4254 466.359 51.0468C466.359 56.6682 470.9 61.2252 476.502 61.2252ZM671.255 144.956C688.795 144.956 703.014 130.737 703.014 113.197C703.014 95.6568 688.795 81.4377 671.255 81.4377C653.715 81.4377 639.496 95.6568 639.496 113.197C639.496 130.737 653.715 144.956 671.255 144.956ZM671.255 158.479C696.264 158.479 716.537 138.206 716.537 113.197C716.537 88.1882 696.264 67.9146 671.255 67.9146C646.246 67.9146 625.973 88.1882 625.973 113.197C625.973 138.206 646.246 158.479 671.255 158.479ZM670.897 138.911C684.9 138.911 696.253 127.559 696.253 113.555C696.253 99.5515 684.9 88.1993 670.897 88.1993C656.893 88.1993 645.541 99.5515 645.541 113.555C645.541 127.559 656.893 138.911 670.897 138.911ZM670.897 142.292C686.768 142.292 699.633 129.426 699.633 113.555C699.633 97.6844 686.768 84.8185 670.897 84.8185C655.026 84.8185 642.16 97.6844 642.16 113.555C642.16 129.426 655.026 142.292 670.897 142.292ZM141.804 429.695C141.804 435.316 137.263 439.873 131.662 439.873C126.061 439.873 121.52 435.316 121.52 429.695C121.52 424.073 126.061 419.516 131.662 419.516C137.263 419.516 141.804 424.073 141.804 429.695ZM730.061 591.936C730.061 603.139 720.979 612.221 709.776 612.221C698.573 612.221 689.491 603.139 689.491 591.936C689.491 580.733 698.573 571.651 709.776 571.651C720.979 571.651 730.061 580.733 730.061 591.936ZM743.584 591.936C743.584 610.581 728.49 625.701 709.855 625.744C763.966 625.786 807.819 669.665 807.819 723.787C807.819 738.757 804.463 752.943 798.464 765.635C802.998 758.754 810.795 754.214 819.651 754.214C833.655 754.214 845.007 765.566 845.007 779.569C845.007 793.573 833.655 804.925 819.651 804.925C805.648 804.925 794.295 793.573 794.295 779.569C794.295 776.443 794.861 773.449 795.896 770.683C779.267 801.156 746.936 821.829 709.776 821.829C655.628 821.829 611.733 777.934 611.733 723.787C611.733 669.665 655.585 625.786 709.697 625.744C691.061 625.701 675.968 610.581 675.968 591.936C675.968 573.265 691.104 558.128 709.776 558.128C728.447 558.128 743.584 573.265 743.584 591.936ZM569.473 798.44C590.946 798.44 608.352 780.972 608.352 759.423C608.352 737.874 590.946 720.406 569.473 720.406C548.001 720.406 530.594 737.874 530.594 759.423C530.594 780.972 548.001 798.44 569.473 798.44ZM635.399 845.639C646.601 845.639 655.683 836.525 655.683 825.282C655.683 814.039 646.601 804.925 635.399 804.925C624.196 804.925 615.114 814.039 615.114 825.282C615.114 836.525 624.196 845.639 635.399 845.639ZM327.747 896.206C327.747 913.011 314.125 926.633 297.32 926.633C280.516 926.633 266.893 913.011 266.893 896.206C266.893 879.402 280.516 865.779 297.32 865.779C314.125 865.779 327.747 879.402 327.747 896.206ZM62.3559 615.662C67.0238 615.662 70.8079 611.864 70.8079 607.18C70.8079 602.495 67.0238 598.698 62.3559 598.698C57.688 598.698 53.904 602.495 53.904 607.18C53.904 611.864 57.688 615.662 62.3559 615.662ZM189.135 837.043C189.135 841.711 185.351 845.495 180.683 845.495C176.015 845.495 172.231 841.711 172.231 837.043C172.231 832.375 176.015 828.591 180.683 828.591C185.351 828.591 189.135 832.375 189.135 837.043ZM953.192 666.385C958.794 666.385 963.335 661.828 963.335 656.207C963.335 650.585 958.794 646.028 953.192 646.028C947.591 646.028 943.05 650.585 943.05 656.207C943.05 661.828 947.591 666.385 953.192 666.385ZM987 507.453C987 513.074 982.459 517.631 976.858 517.631C971.256 517.631 966.715 513.074 966.715 507.453C966.715 501.831 971.256 497.274 976.858 497.274C982.459 497.274 987 501.831 987 507.453ZM838.246 842.09C838.246 864.496 820.082 882.659 797.676 882.659C775.27 882.659 757.107 864.496 757.107 842.09C757.107 819.684 775.27 801.521 797.676 801.521C820.082 801.521 838.246 819.684 838.246 842.09ZM784.153 152.506C789.754 152.506 794.295 147.949 794.295 142.328C794.295 136.707 789.754 132.15 784.153 132.15C778.552 132.15 774.011 136.707 774.011 142.328C774.011 147.949 778.552 152.506 784.153 152.506ZM128.281 270.798C128.281 276.419 123.74 280.976 118.139 280.976C112.537 280.976 107.996 276.419 107.996 270.798C107.996 265.176 112.537 260.619 118.139 260.619C123.74 260.619 128.281 265.176 128.281 270.798ZM165.47 216.741C171.071 216.741 175.612 212.184 175.612 206.563C175.612 200.941 171.071 196.384 165.47 196.384C159.868 196.384 155.327 200.941 155.327 206.563C155.327 212.184 159.868 216.741 165.47 216.741ZM277.036 118.662C277.036 124.284 272.495 128.841 266.893 128.841C261.292 128.841 256.751 124.284 256.751 118.662C256.751 113.041 261.292 108.484 266.893 108.484C272.495 108.484 277.036 113.041 277.036 118.662ZM963.335 365.46C963.335 371.081 958.794 375.638 953.192 375.638C947.591 375.638 943.05 371.081 943.05 365.46C943.05 359.838 947.591 355.281 953.192 355.281C958.794 355.281 963.335 359.838 963.335 365.46ZM863.601 821.829C873.871 821.829 882.196 813.504 882.196 803.235C882.196 792.965 873.871 784.641 863.601 784.641C853.332 784.641 845.007 792.965 845.007 803.235C845.007 813.504 853.332 821.829 863.601 821.829ZM645.541 162.577C645.541 170.045 639.486 176.1 632.018 176.1C624.549 176.1 618.495 170.045 618.495 162.577C618.495 155.108 624.549 149.053 632.018 149.053C639.486 149.053 645.541 155.108 645.541 162.577ZM348.032 375.566C355.501 375.566 361.555 369.511 361.555 362.043C361.555 354.574 355.501 348.52 348.032 348.52C340.563 348.52 334.509 354.574 334.509 362.043C334.509 369.511 340.563 375.566 348.032 375.566ZM473.121 412.791C473.121 418.412 468.58 422.969 462.979 422.969C457.377 422.969 452.836 418.412 452.836 412.791C452.836 407.169 457.377 402.612 462.979 402.612C468.58 402.612 473.121 407.169 473.121 412.791ZM537.356 277.595C542.957 277.595 547.498 273.038 547.498 267.417C547.498 261.795 542.957 257.238 537.356 257.238C531.754 257.238 527.214 261.795 527.214 267.417C527.214 273.038 531.754 277.595 537.356 277.595ZM266.893 877.678C266.893 889.858 257.055 899.732 244.918 899.732C232.782 899.732 222.943 889.858 222.943 877.678C222.943 865.499 232.782 855.625 244.918 855.625C257.055 855.625 266.893 865.499 266.893 877.678ZM621.875 84.9388C631.211 84.9388 638.779 77.3438 638.779 67.9748C638.779 58.6058 631.211 51.0107 621.875 51.0107C612.54 51.0107 604.972 58.6058 604.972 67.9748C604.972 77.3438 612.54 84.9388 621.875 84.9388ZM87.7118 526.101C87.7118 540.154 76.3596 551.547 62.3559 551.547C48.3522 551.547 37 540.154 37 526.101C37 512.047 48.3522 500.655 62.3559 500.655C76.3596 500.655 87.7118 512.047 87.7118 526.101ZM75.8791 402.744C86.1484 402.744 94.4734 394.39 94.4734 384.084C94.4734 373.778 86.1484 365.423 75.8791 365.423C65.6097 365.423 57.2847 373.778 57.2847 384.084C57.2847 394.39 65.6097 402.744 75.8791 402.744ZM364.936 267.381C364.936 276.717 357.368 284.285 348.032 284.285C338.696 284.285 331.128 276.717 331.128 267.381C331.128 258.045 338.696 250.477 348.032 250.477C357.368 250.477 364.936 258.045 364.936 267.381ZM535.665 487.288C547.802 487.288 557.641 477.414 557.641 465.235C557.641 453.055 547.802 443.181 535.665 443.181C523.529 443.181 513.69 453.055 513.69 465.235C513.69 477.414 523.529 487.288 535.665 487.288ZM569.685 230.509C569.685 239.553 562.353 246.885 553.309 246.885C544.265 246.885 536.933 239.553 536.933 230.509C536.933 221.465 544.265 214.133 553.309 214.133C562.353 214.133 569.685 221.465 569.685 230.509ZM449.456 223.623C464.393 223.623 476.502 211.471 476.502 196.481C476.502 181.49 464.393 169.338 449.456 169.338C434.518 169.338 422.409 181.49 422.409 196.481C422.409 211.471 434.518 223.623 449.456 223.623ZM987 465.157C987 484.762 971.107 500.655 951.502 500.655C931.897 500.655 916.004 484.762 916.004 465.157C916.004 445.551 931.897 429.658 951.502 429.658C971.107 429.658 987 445.551 987 465.157ZM615.114 683.217C615.114 700.021 601.491 713.644 584.687 713.644C567.882 713.644 554.26 700.021 554.26 683.217C554.26 666.413 567.882 652.79 584.687 652.79C601.491 652.79 615.114 666.413 615.114 683.217ZM505.239 443.386C521.109 443.386 533.975 430.475 533.975 414.547C533.975 398.62 521.109 385.708 505.239 385.708C489.368 385.708 476.502 398.62 476.502 414.547C476.502 430.475 489.368 443.386 505.239 443.386ZM314.224 115.306C314.224 124.675 306.656 132.27 297.32 132.27C287.984 132.27 280.416 124.675 280.416 115.306C280.416 105.937 287.984 98.3417 297.32 98.3417C306.656 98.3417 314.224 105.937 314.224 115.306ZM57.2847 588.555C64.7533 588.555 70.8078 582.501 70.8078 575.032C70.8078 567.563 64.7533 561.509 57.2847 561.509C49.8161 561.509 43.7616 567.563 43.7616 575.032C43.7616 582.501 49.8161 588.555 57.2847 588.555ZM469.74 66.3024C469.74 78.4821 459.902 88.3557 447.765 88.3557C435.629 88.3557 425.79 78.4821 425.79 66.3024C425.79 54.1227 435.629 44.2491 447.765 44.2491C459.902 44.2491 469.74 54.1227 469.74 66.3024ZM265.203 382.556C282.941 382.556 297.32 368.125 297.32 350.324C297.32 332.523 282.941 318.093 265.203 318.093C247.465 318.093 233.085 332.523 233.085 350.324C233.085 368.125 247.465 382.556 265.203 382.556ZM973.477 407.798C973.477 418.103 965.152 426.458 954.883 426.458C944.613 426.458 936.288 418.103 936.288 407.798C936.288 397.492 944.613 389.137 954.883 389.137C965.152 389.137 973.477 397.492 973.477 407.798ZM206.039 869.16C213.508 869.16 219.562 863.106 219.562 855.637C219.562 848.168 213.508 842.114 206.039 842.114C198.571 842.114 192.516 848.168 192.516 855.637C192.516 863.106 198.571 869.16 206.039 869.16ZM659.064 946.918C659.064 958.121 649.982 967.203 638.779 967.203C627.577 967.203 618.495 958.121 618.495 946.918C618.495 935.715 627.577 926.634 638.779 926.634C649.982 926.634 659.064 935.715 659.064 946.918ZM441.028 980.907C451.31 980.907 459.646 972.541 459.646 962.222C459.646 951.903 451.31 943.537 441.028 943.537C430.745 943.537 422.409 951.903 422.409 962.222C422.409 972.541 430.745 980.907 441.028 980.907ZM118.139 446.695C118.139 467.306 101.489 484.016 80.9502 484.016C60.4115 484.016 43.7616 467.306 43.7616 446.695C43.7616 426.083 60.4115 409.374 80.9502 409.374C101.489 409.374 118.139 426.083 118.139 446.695ZM322.676 348.748C340.414 348.748 354.794 334.318 354.794 316.516C354.794 298.715 340.414 284.285 322.676 284.285C304.938 284.285 290.559 298.715 290.559 316.516C290.559 334.318 304.938 348.748 322.676 348.748ZM569.473 544.785C583.477 544.785 594.829 533.393 594.829 519.339C594.829 505.286 583.477 493.893 569.473 493.893C555.47 493.893 544.117 505.286 544.117 519.339C544.117 533.393 555.47 544.785 569.473 544.785ZM763.868 128.769C763.868 139.972 754.787 149.053 743.584 149.053C732.381 149.053 723.299 139.972 723.299 128.769C723.299 117.566 732.381 108.484 743.584 108.484C754.787 108.484 763.868 117.566 763.868 128.769ZM388.601 221.74C388.601 232.01 380.276 240.335 370.007 240.335C359.738 240.335 351.413 232.01 351.413 221.74C351.413 211.471 359.738 203.146 370.007 203.146C380.276 203.146 388.601 211.471 388.601 221.74ZM398.744 221.74C398.744 237.611 385.878 250.477 370.007 250.477C354.136 250.477 341.27 237.611 341.27 221.74C341.27 205.869 354.136 193.004 370.007 193.004C385.878 193.004 398.744 205.869 398.744 221.74ZM182.374 245.496C182.374 259.549 171.021 270.942 157.018 270.942C143.014 270.942 131.662 259.549 131.662 245.496C131.662 231.442 143.014 220.05 157.018 220.05C171.021 220.05 182.374 231.442 182.374 245.496ZM530.594 226.811C530.594 236.147 523.026 243.715 513.69 243.715C504.355 243.715 496.786 236.147 496.786 226.811C496.786 217.476 504.355 209.908 513.69 209.908C523.026 209.908 530.594 217.476 530.594 226.811ZM620.185 639.267C643.524 639.267 662.445 620.347 662.445 597.007C662.445 573.668 643.524 554.747 620.185 554.747C596.846 554.747 577.925 573.668 577.925 597.007C577.925 620.347 596.846 639.267 620.185 639.267ZM620.185 652.79C650.993 652.79 675.968 627.815 675.968 597.007C675.968 566.199 650.993 541.224 620.185 541.224C589.377 541.224 564.402 566.199 564.402 597.007C564.402 627.815 589.377 652.79 620.185 652.79ZM621.875 634.196C641.48 634.196 657.374 618.303 657.374 598.698C657.374 579.093 641.48 563.2 621.875 563.2C602.27 563.2 586.377 579.093 586.377 598.698C586.377 618.303 602.27 634.196 621.875 634.196ZM621.875 637.577C643.348 637.577 660.754 620.17 660.754 598.698C660.754 577.226 643.348 559.819 621.875 559.819C600.403 559.819 582.996 577.226 582.996 598.698C582.996 620.17 600.403 637.577 621.875 637.577ZM796.831 629.336C811.814 629.336 824.3 616.991 824.3 601.339C824.3 585.688 811.814 573.342 796.831 573.342C781.848 573.342 769.362 585.688 769.362 601.339C769.362 616.991 781.848 629.336 796.831 629.336ZM796.831 646.24C821.337 646.24 841.204 626.137 841.204 601.339C841.204 576.541 821.337 556.438 796.831 556.438C772.325 556.438 752.458 576.541 752.458 601.339C752.458 626.137 772.325 646.24 796.831 646.24ZM422.409 911.42C422.409 932.892 405.003 950.299 383.53 950.299C362.058 950.299 344.651 932.892 344.651 911.42C344.651 889.948 362.058 872.541 383.53 872.541C405.003 872.541 422.409 889.948 422.409 911.42ZM435.932 911.42C435.932 940.361 412.471 963.822 383.53 963.822C354.589 963.822 331.128 940.361 331.128 911.42C331.128 882.479 354.589 859.018 383.53 859.018C412.471 859.018 435.932 882.479 435.932 911.42ZM383.53 176.1C410.604 176.1 432.552 154.152 432.552 127.078C432.552 100.005 410.604 78.057 383.53 78.057C356.457 78.057 334.509 100.005 334.509 127.078C334.509 154.152 356.457 176.1 383.53 176.1ZM383.53 193.004C419.94 193.004 449.456 163.488 449.456 127.078C449.456 90.6688 419.94 61.1531 383.53 61.1531C347.121 61.1531 317.605 90.6688 317.605 127.078C317.605 163.488 347.121 193.004 383.53 193.004ZM385.528 161.501C403.436 161.501 417.953 146.984 417.953 129.076C417.953 111.168 403.436 96.6514 385.528 96.6514C382.598 96.6514 379.76 97.0399 377.06 97.7682C379.15 97.3387 381.313 97.1131 383.53 97.1131C401.183 97.1131 415.494 111.424 415.494 129.077C415.494 146.73 401.183 161.041 383.53 161.041C381.321 161.041 379.165 160.817 377.082 160.39C379.775 161.114 382.606 161.501 385.528 161.501ZM385.528 175.024C410.904 175.024 431.476 154.452 431.476 129.076C431.476 103.7 410.904 83.1282 385.528 83.1282C360.152 83.1282 339.58 103.7 339.58 129.076C339.58 154.452 360.152 175.024 385.528 175.024ZM383.531 127.079C390.151 127.079 395.518 121.713 395.518 115.093C395.518 108.473 390.151 103.106 383.531 103.106C376.911 103.106 371.545 108.473 371.545 115.093C371.545 121.713 376.911 127.079 383.531 127.079ZM375.539 132.073C375.539 134.831 373.303 137.067 370.545 137.067C367.786 137.067 365.55 134.831 365.55 132.073C365.55 129.315 367.786 127.079 370.545 127.079C373.303 127.079 375.539 129.315 375.539 132.073ZM162.089 400.288C192.547 400.288 217.238 375.597 217.238 345.139C217.238 314.681 192.547 289.99 162.089 289.99C131.631 289.99 106.94 314.681 106.94 345.139C106.94 375.597 131.631 400.288 162.089 400.288ZM162.089 416.135C201.299 416.135 233.085 384.349 233.085 345.139C233.085 305.929 201.299 274.142 162.089 274.142C122.879 274.142 91.0926 305.929 91.0926 345.139C91.0926 384.349 122.879 416.135 162.089 416.135ZM165.047 388.455C188.97 388.455 208.363 369.062 208.363 345.139C208.363 321.216 188.97 301.823 165.047 301.823C141.124 301.823 121.731 321.216 121.731 345.139C121.731 369.062 141.124 388.455 165.047 388.455ZM158.861 347.828C166.26 347.828 172.258 341.829 172.258 334.43C172.258 327.031 166.26 321.033 158.861 321.033C151.462 321.033 145.464 327.031 145.464 334.43C145.464 341.829 151.462 347.828 158.861 347.828ZM865.855 572.163C865.855 596.375 882.84 616.62 905.544 621.633C880.778 617.46 861.911 595.914 861.911 569.961C861.911 541.02 885.372 517.559 914.313 517.559C940.264 517.559 961.809 536.422 965.984 561.186C960.969 538.484 940.725 521.503 916.516 521.503C888.537 521.503 865.855 544.184 865.855 572.163ZM914.313 642.648C954.457 642.648 987 610.105 987 569.961C987 529.817 954.457 497.274 914.313 497.274C874.169 497.274 841.626 529.817 841.626 569.961C841.626 610.105 874.169 642.648 914.313 642.648ZM916.516 612.681C938.893 612.681 957.034 594.541 957.034 572.163C957.034 549.786 938.893 531.645 916.516 531.645C894.138 531.645 875.998 549.786 875.998 572.163C875.998 594.541 894.138 612.681 916.516 612.681ZM914.313 607.405C933.777 607.405 949.555 591.627 949.555 572.163C949.555 552.699 933.777 536.921 914.313 536.921C894.849 536.921 879.071 552.699 879.071 572.163C879.071 591.627 894.849 607.405 914.313 607.405ZM927.529 587.081C934.828 587.081 940.745 581.164 940.745 573.866C940.745 566.567 934.828 560.65 927.529 560.65C920.23 560.65 914.313 566.567 914.313 573.866C914.313 581.164 920.23 587.081 927.529 587.081ZM916.241 587.281C916.241 590.322 913.775 592.788 910.734 592.788C907.693 592.788 905.227 590.322 905.227 587.281C905.227 584.24 907.693 581.775 910.734 581.775C913.775 581.775 916.241 584.24 916.241 587.281ZM604.972 125.388C604.972 162.731 574.699 193.004 537.356 193.004C500.013 193.004 469.74 162.731 469.74 125.388C469.74 88.0448 500.013 57.7723 537.356 57.7723C574.699 57.7723 604.972 88.0448 604.972 125.388ZM621.875 125.388C621.875 172.067 584.035 209.908 537.356 209.908C490.677 209.908 452.836 172.067 452.836 125.388C452.836 78.7091 490.677 40.8684 537.356 40.8684C584.035 40.8684 621.875 78.7091 621.875 125.388ZM583.16 129.478C583.16 154.022 563.263 173.919 538.719 173.919C514.175 173.919 494.278 154.022 494.278 129.478C494.278 104.934 514.175 85.0369 538.719 85.0369C563.263 85.0369 583.16 104.934 583.16 129.478ZM600.064 129.478C600.064 163.358 572.599 190.823 538.719 190.823C504.839 190.823 477.374 163.358 477.374 129.478C477.374 95.598 504.839 68.133 538.719 68.133C572.599 68.133 600.064 95.598 600.064 129.478ZM538.719 166.285C557.541 166.285 572.8 151.026 572.8 132.204C572.8 113.382 557.541 98.1238 538.719 98.1238C519.897 98.1238 504.639 113.382 504.639 132.204C504.639 151.026 519.897 166.285 538.719 166.285ZM524.812 125.862C530.382 125.862 534.898 121.346 534.898 115.775C534.898 110.204 530.382 105.689 524.812 105.689C519.241 105.689 514.725 110.204 514.725 115.775C514.725 121.346 519.241 125.862 524.812 125.862ZM527.897 131.187C527.897 134.128 525.513 136.512 522.572 136.512C519.631 136.512 517.247 134.128 517.247 131.187C517.247 128.246 519.631 125.862 522.572 125.862C525.513 125.862 527.897 128.246 527.897 131.187ZM541.202 115.775C544.684 115.775 547.507 112.953 547.507 109.471C547.507 105.99 544.684 103.167 541.202 103.167C537.721 103.167 534.898 105.99 534.898 109.471C534.898 112.953 537.721 115.775 541.202 115.775ZM258.441 274.142C292.984 274.142 320.986 246.14 320.986 211.598C320.986 177.056 292.984 149.053 258.441 149.053C223.899 149.053 195.897 177.056 195.897 211.598C195.897 246.14 223.899 274.142 258.441 274.142ZM258.441 291.046C302.319 291.046 337.89 255.476 337.89 211.598C337.89 167.72 302.319 132.15 258.441 132.15C214.563 132.15 178.993 167.72 178.993 211.598C178.993 255.476 214.563 291.046 258.441 291.046ZM260.849 255.856C283.962 255.856 302.699 237.119 302.699 214.006C302.699 190.893 283.962 172.156 260.849 172.156C237.735 172.156 218.999 190.893 218.999 214.006C218.999 237.119 237.735 255.856 260.849 255.856ZM260.849 269.379C291.43 269.379 316.222 244.588 316.222 214.006C316.222 183.424 291.43 158.633 260.849 158.633C230.267 158.633 205.475 183.424 205.475 214.006C205.475 244.588 230.267 269.379 260.849 269.379ZM258.441 252.526C279.715 252.526 296.962 235.28 296.962 214.006C296.962 192.731 279.715 175.485 258.441 175.485C237.167 175.485 219.921 192.731 219.921 214.006C219.921 235.28 237.167 252.526 258.441 252.526ZM258.442 211.598C266.42 211.598 272.887 205.13 272.887 197.153C272.887 189.175 266.42 182.707 258.442 182.707C250.464 182.707 243.997 189.175 243.997 197.153C243.997 205.13 250.464 211.598 258.442 211.598ZM248.811 217.617C248.811 220.941 246.116 223.636 242.792 223.636C239.468 223.636 236.773 220.941 236.773 217.617C236.773 214.293 239.468 211.598 242.792 211.598C246.116 211.598 248.811 214.293 248.811 217.617ZM697.943 946.918C732.485 946.918 760.488 918.916 760.488 884.374C760.488 849.831 732.485 821.829 697.943 821.829C663.401 821.829 635.399 849.831 635.399 884.374C635.399 918.916 663.401 946.918 697.943 946.918ZM929.527 706.883C929.527 734.89 906.822 757.594 878.815 757.594C850.808 757.594 828.103 734.89 828.103 706.883C828.103 678.875 850.808 656.171 878.815 656.171C906.822 656.171 929.527 678.875 929.527 706.883ZM946.431 706.883C946.431 744.226 916.158 774.498 878.815 774.498C841.472 774.498 811.199 744.226 811.199 706.883C811.199 669.539 841.472 639.267 878.815 639.267C916.158 639.267 946.431 669.539 946.431 706.883ZM878.815 752.984C902.579 752.984 921.843 733.719 921.843 709.956C921.843 686.192 902.579 666.928 878.815 666.928C855.051 666.928 835.787 686.192 835.787 709.956C835.787 733.719 855.051 752.984 878.815 752.984ZM611.733 891.135C611.733 933.146 577.676 967.203 535.665 967.203C493.655 967.203 459.598 933.146 459.598 891.135C459.598 849.124 493.655 815.068 535.665 815.068C577.676 815.068 611.733 849.124 611.733 891.135ZM632.018 891.135C632.018 944.349 588.879 987.488 535.665 987.488C482.452 987.488 439.313 944.349 439.313 891.135C439.313 837.921 482.452 794.783 535.665 794.783C588.879 794.783 632.018 837.921 632.018 891.135ZM590.526 892.365C590.526 921.984 566.515 945.996 536.895 945.996C507.275 945.996 483.263 921.984 483.263 892.365C483.263 862.745 507.275 838.733 536.895 838.733C566.515 838.733 590.526 862.745 590.526 892.365ZM604.049 892.365C604.049 929.453 573.983 959.519 536.895 959.519C499.806 959.519 469.74 929.453 469.74 892.365C469.74 855.276 499.806 825.21 536.895 825.21C573.983 825.21 604.049 855.276 604.049 892.365ZM582.381 894.055C582.381 919.856 561.466 940.771 535.665 940.771C509.864 940.771 488.949 919.856 488.949 894.055C488.949 868.254 509.864 847.339 535.665 847.339C561.466 847.339 582.381 868.254 582.381 894.055ZM709.776 794.783C748.986 794.783 780.772 762.997 780.772 723.787C780.772 684.576 748.986 652.79 709.776 652.79C670.566 652.79 638.779 684.576 638.779 723.787C638.779 762.997 670.566 794.783 709.776 794.783ZM709.776 784.429C743.268 784.429 770.419 757.279 770.419 723.786C770.419 690.294 743.268 663.144 709.776 663.144C676.284 663.144 649.133 690.294 649.133 723.786C649.133 757.279 676.284 784.429 709.776 784.429ZM709.776 791.191C747.002 791.191 777.18 761.013 777.18 723.786C777.18 686.56 747.002 656.382 709.776 656.382C672.549 656.382 642.371 686.56 642.371 723.786C642.371 761.013 672.549 791.191 709.776 791.191ZM711.308 769.744C735.843 769.744 755.733 749.854 755.733 725.318C755.733 700.783 735.843 680.893 711.308 680.893C686.772 680.893 666.882 700.783 666.882 725.318C666.882 749.854 686.772 769.744 711.308 769.744ZM517.283 311.542C517.283 350.753 485.496 382.539 446.286 382.539C407.076 382.539 375.29 350.753 375.29 311.542C375.29 272.332 407.076 240.546 446.286 240.546C485.496 240.546 517.283 272.332 517.283 311.542ZM534.186 311.542C534.186 360.088 494.832 399.443 446.286 399.443C397.74 399.443 358.386 360.088 358.386 311.542C358.386 262.996 397.74 223.642 446.286 223.642C494.832 223.642 534.186 262.996 534.186 311.542ZM498.9 311.754C498.9 340.694 475.438 364.156 446.497 364.156C417.556 364.156 394.095 340.694 394.095 311.754C394.095 282.813 417.556 259.351 446.497 259.351C475.438 259.351 498.9 282.813 498.9 311.754ZM512.423 311.754C512.423 348.163 482.907 377.679 446.497 377.679C410.088 377.679 380.572 348.163 380.572 311.754C380.572 275.344 410.088 245.828 446.497 245.828C482.907 245.828 512.423 275.344 512.423 311.754ZM485.165 311.331C485.165 332.92 467.664 350.421 446.075 350.421C424.486 350.421 406.984 332.92 406.984 311.331C406.984 289.742 424.486 272.241 446.075 272.241C467.664 272.241 485.165 289.742 485.165 311.331ZM878.815 355.281C878.815 433.702 815.243 497.274 736.822 497.274C658.402 497.274 594.829 433.702 594.829 355.281C594.829 276.861 658.402 213.288 736.822 213.288C815.243 213.288 878.815 276.861 878.815 355.281ZM939.669 355.281C939.669 467.31 848.851 558.128 736.822 558.128C624.793 558.128 533.975 467.31 533.975 355.281C533.975 243.252 624.793 152.434 736.822 152.434C848.851 152.434 939.669 243.252 939.669 355.281ZM736.822 460.871C791.139 460.871 835.172 416.682 835.172 362.171C835.172 307.661 791.139 263.471 736.822 263.471C682.505 263.471 638.472 307.661 638.472 362.171C638.472 416.682 682.505 460.871 736.822 460.871ZM490.025 620.673C490.025 716.831 412.073 794.783 315.915 794.783C219.756 794.783 141.804 716.831 141.804 620.673C141.804 524.514 219.756 446.563 315.915 446.563C412.073 446.563 490.025 524.514 490.025 620.673ZM557.641 620.673C557.641 754.174 449.416 862.399 315.915 862.399C182.413 862.399 74.1887 754.174 74.1887 620.673C74.1887 487.171 182.413 378.947 315.915 378.947C449.416 378.947 557.641 487.171 557.641 620.673ZM456.217 620.673C456.217 698.16 393.402 760.975 315.915 760.975C238.428 760.975 175.612 698.16 175.612 620.673C175.612 543.186 238.428 480.37 315.915 480.37C393.402 480.37 456.217 543.186 456.217 620.673ZM476.502 620.673C476.502 709.363 404.605 781.26 315.915 781.26C227.225 781.26 155.327 709.363 155.327 620.673C155.327 531.983 227.225 460.086 315.915 460.086C404.605 460.086 476.502 531.983 476.502 620.673ZM415.648 622.363C415.648 678.378 370.239 723.786 314.224 723.786C258.21 723.786 212.801 678.378 212.801 622.363C212.801 566.348 258.21 520.94 314.224 520.94C370.239 520.94 415.648 566.348 415.648 622.363Z" fill="#1F2328"/>
</svg>
